<?xml version="1.0" encoding="utf-8"?>
<!-- Generator: Adobe Illustrator 16.0.4, SVG Export Plug-In . SVG Version: 6.00 Build 0)  -->
<!DOCTYPE svg PUBLIC "-//W3C//DTD SVG 1.1//EN" "http://www.w3.org/Graphics/SVG/1.1/DTD/svg11.dtd">
<svg version="1.1" id="Layer_1" xmlns="http://www.w3.org/2000/svg" xmlns:xlink="http://www.w3.org/1999/xlink" x="0px" y="0px"
	 width="300px" height="300px" viewBox="0 0 300 300" enable-background="new 0 0 300 300" xml:space="preserve">
<path fill="#FFFFFF" d="M220.866,8.268c-26.227,0-49.123,14.248-61.378,35.423l-0.18,0.312c-0.722,1.207-3.768,5.678-9.309,5.678
	c-5.54,0-8.586-4.469-9.308-5.677c-0.053-0.093-0.106-0.186-0.16-0.278l-0.018-0.03C128.26,22.518,105.362,8.268,79.134,8.268H8.268
	v283.465h70.866c26.239,0,49.146-14.262,61.396-35.454c0.047-0.081,0.106-0.184,0.153-0.266c0.707-1.187,3.756-5.692,9.317-5.692
	c5.562,0,8.611,4.506,9.318,5.692c0.047,0.082,0.094,0.163,0.141,0.245c0.002,0.004,0.006,0.009,0.008,0.014l0.021,0.036
	c12.255,21.177,35.152,35.425,61.379,35.425h70.866V8.268H220.866z M150,220.866C150,181.729,118.272,150,79.134,150
	c39.138,0,70.865-31.727,70.866-70.864C150.001,118.273,181.729,150,220.866,150C181.728,150,150,181.729,150,220.866"/>
</svg>
